<?xml version="1.0" encoding="UTF-8" standalone="no"?>
<!-- Generator: Adobe Illustrator 19.2.0, SVG Export Plug-In . SVG Version: 6.00 Build 0)  -->

<svg
   xmlns:dc="http://purl.org/dc/elements/1.1/"
   xmlns:cc="http://creativecommons.org/ns#"
   xmlns:rdf="http://www.w3.org/1999/02/22-rdf-syntax-ns#"
   xmlns:svg="http://www.w3.org/2000/svg"
   xmlns="http://www.w3.org/2000/svg"
   xmlns:sodipodi="http://sodipodi.sourceforge.net/DTD/sodipodi-0.dtd"
   xmlns:inkscape="http://www.inkscape.org/namespaces/inkscape"
   version="1.1"
   id="Слой_1"
   x="0px"
   y="0px"
   viewBox="0 0 58 58"
   xml:space="preserve"
   inkscape:version="0.91 r13725"
   sodipodi:docname="facebook-square.svg"
   width="58"
   height="58"><metadata
     id="metadata16"><rdf:RDF><cc:Work
         rdf:about=""><dc:format>image/svg+xml</dc:format><dc:type
           rdf:resource="http://purl.org/dc/dcmitype/StillImage" /><dc:title /></cc:Work></rdf:RDF></metadata><defs
     id="defs14" /><sodipodi:namedview
     pagecolor="#ffffff"
     bordercolor="#666666"
     borderopacity="1"
     objecttolerance="10"
     gridtolerance="10"
     guidetolerance="10"
     inkscape:pageopacity="0"
     inkscape:pageshadow="2"
     inkscape:window-width="2446"
     inkscape:window-height="1209"
     id="namedview12"
     showgrid="false"
     fit-margin-top="-1"
     fit-margin-bottom="-1"
     fit-margin-right="-1"
     fit-margin-left="-1"
     inkscape:zoom="11.125147"
     inkscape:cx="1.3305821"
     inkscape:cy="37.833705"
     inkscape:window-x="0"
     inkscape:window-y="48"
     inkscape:window-maximized="0"
     inkscape:current-layer="Слой_1" /><style
     type="text/css"
     id="style3">
	.st0{fill:#F7DE64;}
</style><desc
     id="desc7" /><g
     id="slices"
     transform="translate(172,137)" /><path
     class="st0"
     d="M 56,-1 2,-1 c -1.7,0 -3,1.3 -3,3 l 0,54 c 0,1.7 1.3,3 3,3 l 54,0 c 1.7,0 3,-1.3 3,-3 L 59,2 c 0,-1.7 -1.3,-3 -3,-3 z m -18.9,18.5 -4.3,0 c -2.2,0 -2.6,1.4 -2.6,2.9 l 0,2.9 6.6,0 -0.9,5.7 -5.7,0 0,17.3 -5.7,0 0,-17.3 -3.5,0 0,-5.7 3.5,0 0,-3.5 c 0,-4.7 1.4,-8.1 6.5,-8.1 l 6.1,0 0,5.8 z"
     id="path10"
     inkscape:connector-curvature="0"
     style="fill:#fee258;fill-opacity:1" /></svg>