<?xml version="1.0" encoding="utf-8"?>
<!-- Generator: Adobe Illustrator 19.2.0, SVG Export Plug-In . SVG Version: 6.00 Build 0)  -->
<svg version="1.1" id="Layer_4" xmlns="http://www.w3.org/2000/svg" xmlns:xlink="http://www.w3.org/1999/xlink" x="0px" y="0px"
	 viewBox="0 0 512 512" style="enable-background:new 0 0 512 512;" xml:space="preserve">
<style type="text/css">
	.st0{fill:#F7DE64;}
</style>
<path class="st0" d="M169.8,284v28.5l-33.5,7.7c-11.5,2.7-24.4,4-38.6,4c-29.6,0-52.6-9.4-68.8-28.3C15.3,280,8.6,261.2,8.6,239.5
	c0-23.9,8.3-44.1,24.8-60.8c17.8-17.8,41-26.7,69.7-26.7c12.2,0,24.1,1.6,35.8,4.9c10.8,3,22.1,13.8,31.9,20.5l-19.4,18.5l-8.2,1.9
	l5.9-9.4c-15.1-14.8-32.8-28.2-51.1-28.2c-18.7,0-34.2,6.4-46.4,19.3c-12.2,12.9-18.4,29.5-18.4,49.8c0,23.1,7.4,42.9,22.2,59.3
	c15.9,17.5,36.1,26.2,60.6,26.2c10.1,0,20-1.9,29.7-5.9v-40.7l-35.3,1.9l18.7-10.1h50.6l-7.1,5.9c-1.2,1.2-2,2.5-2.3,3.7
	C169.9,272.5,169.8,279.3,169.8,284z"/>
<path class="st0" d="M411.7,310.6c-6,5.2-11.8,8.8-17.3,10.9c-5.6,2.1-11.5,3.2-17.9,3.2c-10.5,0-18.6-2.6-24.2-7.8
	c-5.6-5.2-8.5-11.8-8.5-19.9c0-4.7,1.1-9.1,3.2-13c2.1-3.9,4.9-7.1,8.4-9.4c3.5-2.4,7.3-4.2,11.7-5.4c3.2-0.9,8-1.7,14.4-2.5
	c13.1-1.6,22.7-3.5,28.9-5.7c0.1-2.2,0.1-3.7,0.1-4.3c0-6.7-1.5-11.4-4.6-14.1c-4.1-3.7-10.3-5.6-18.5-5.6c-7.6,0-13.3,1.4-16.9,4.1
	c-3.6,2.7-6.3,7.5-8.1,14.4l-15.8-2.2c1.4-6.9,3.8-12.4,7.1-16.6c3.3-4.2,8.1-7.5,14.3-9.8c6.2-2.3,13.5-3.4,21.7-3.4
	c8.2,0,14.8,1,19.9,2.9c5.1,1.9,8.9,4.4,11.3,7.3c2.4,2.9,4.1,6.7,5,11.2c0.5,2.8,0.8,7.8,0.8,15.1V282c0,15.3,0.3,24.9,1,29
	c0.7,4,2.1,7.9,4.1,11.6H415C413.3,319.2,412.2,315.2,411.7,310.6z M410.4,274c-6.9-0.3-38.5,2.8-47,14.8c-1.6,2.3-2.2,4.9-2.2,7.8
	c0,4.4,1.6,8,4.9,10.9c3.3,2.9,8.1,4.4,14.4,4.4c6.2,0,11.8-1.4,16.7-4.1c4.9-2.8,8.4-6.6,10.7-11.4c1.7-3.7,2.6-9.2,2.6-16.4
	L410.4,274L410.4,274z"/>
<path class="st0" d="M452,206.3v-18.6h16.2v18.6L452,206.3L452,206.3z M452,322.6V223h16.2v99.6H452z"/>
<path class="st0" d="M487.5,322.6v-135h16.2v135L487.5,322.6L487.5,322.6z"/>
<polygon class="st0" points="244.8,285.7 218.1,311.7 249.8,289 "/>
<polygon class="st0" points="303.8,224.4 303.8,229 256.6,263.2 209.3,229 209.3,224.4 189.4,224.4 189.4,323.3 209.3,323.3 
	209.3,258.3 198.2,248.8 209.3,256.8 209.3,256.8 218.7,263.6 230.9,272.4 230.9,272.5 256.5,291 256.5,291.1 256.5,291.1 
	256.6,291.1 256.6,291.1 256.6,291.1 282.1,272.5 282.1,272.4 294.4,263.6 303.8,256.8 303.8,256.8 314.8,248.8 303.8,258.3 
	303.8,322.3 323.7,322.3 323.7,224.4 "/>
<polygon class="st0" points="268.4,285.7 295.1,311.7 263.5,289 "/>
<g>
	<path class="st0" d="M323.7,323.2H189.1v-99.1h134.6V323.2z M318.7,229.1H194.1v89.1h124.6V229.1L318.7,229.1z"/>
</g>
</svg>
