<?xml version="1.0" encoding="UTF-8" standalone="no"?>
<!-- Generator: Adobe Illustrator 19.2.0, SVG Export Plug-In . SVG Version: 6.00 Build 0)  -->

<svg
   xmlns:dc="http://purl.org/dc/elements/1.1/"
   xmlns:cc="http://creativecommons.org/ns#"
   xmlns:rdf="http://www.w3.org/1999/02/22-rdf-syntax-ns#"
   xmlns:svg="http://www.w3.org/2000/svg"
   xmlns="http://www.w3.org/2000/svg"
   xmlns:sodipodi="http://sodipodi.sourceforge.net/DTD/sodipodi-0.dtd"
   xmlns:inkscape="http://www.inkscape.org/namespaces/inkscape"
   version="1.1"
   id="Слой_1"
   x="0px"
   y="0px"
   viewBox="0 0 2951.7285 1033.2"
   xml:space="preserve"
   inkscape:version="0.91 r13725"
   sodipodi:docname="logo-ams.svg"
   width="2951.7285"
   height="1033.2"><metadata
     id="metadata101"><rdf:RDF><cc:Work
         rdf:about=""><dc:format>image/svg+xml</dc:format><dc:type
           rdf:resource="http://purl.org/dc/dcmitype/StillImage" /><dc:title /></cc:Work></rdf:RDF></metadata><defs
     id="defs99" /><sodipodi:namedview
     pagecolor="#ffffff"
     bordercolor="#666666"
     borderopacity="1"
     objecttolerance="10"
     gridtolerance="10"
     guidetolerance="10"
     inkscape:pageopacity="0"
     inkscape:pageshadow="2"
     inkscape:window-width="3303"
     inkscape:window-height="1720"
     id="namedview97"
     showgrid="false"
     fit-margin-top="0"
     fit-margin-left="0"
     fit-margin-right="0"
     fit-margin-bottom="0"
     inkscape:zoom="0.77798229"
     inkscape:cx="1092.7501"
     inkscape:cy="444.19669"
     inkscape:window-x="0"
     inkscape:window-y="48"
     inkscape:window-maximized="0"
     inkscape:current-layer="g5" /><style
     type="text/css"
     id="style3">
	.st0{fill-rule:evenodd;clip-rule:evenodd;fill:#F7DE64;}
</style><g
     id="g5"
     transform="translate(-66.771429,-341.3)"><path
       class="st0"
       d="m 1068.5,1372.4 0,-120.5 23.7,0 0,120.5 -23.7,0 z m 46.5,0 0,-120.5 23,0 48,80.5 0,-80.5 22,0 0,120.5 -23.8,0 -47.3,-78.6 0,78.6 -21.9,0 z m 144.4,0 0,-100.1 -34.8,0 0,-20.4 93.2,0 0,20.4 -34.7,0 0,100.1 -23.7,0 z m 73.7,0 0,-120.5 86.9,0 0,20.4 -63.3,0 0,26.7 58.9,0 0,20.3 -58.9,0 0,32.8 65.5,0 0,20.3 -89.1,0 z m 109.3,0 0,-120.5 49.8,0 c 12.5,0 21.6,1.1 27.3,3.2 5.7,2.2 10.2,6 13.6,11.5 3.4,5.6 5.1,11.9 5.1,19 0,9 -2.6,16.5 -7.8,22.4 -5.2,5.9 -12.9,9.6 -23.2,11.1 5.1,3.1 9.4,6.5 12.7,10.1 3.3,3.7 7.8,10.2 13.5,19.6 l 14.3,23.5 -28.3,0 -17.1,-26.2 c -6.1,-9.4 -10.2,-15.3 -12.5,-17.7 -2.2,-2.4 -4.6,-4.1 -7.1,-5 -2.5,-0.9 -6.5,-1.4 -11.9,-1.4 l -4.8,0 0,50.3 -23.6,0 z m 23.7,-69.6 17.5,0 c 11.4,0 18.5,-0.5 21.3,-1.5 2.8,-1 5,-2.7 6.6,-5.1 1.6,-2.4 2.4,-5.4 2.4,-9 0,-4.1 -1.1,-7.3 -3.2,-9.8 -2.1,-2.5 -5.1,-4.1 -8.9,-4.7 -1.9,-0.3 -7.7,-0.4 -17.3,-0.4 l -18.5,0 0,30.5 z m 94.8,69.6 0,-120.5 23,0 48,80.5 0,-80.5 22,0 0,120.5 -23.8,0 -47.3,-78.6 0,78.6 -21.9,0 z m 223.8,0 -25.8,0 -10.2,-27.4 -46.9,0 -9.7,27.4 -25.1,0 45.7,-120.5 25,0 47,120.5 z m -43.6,-47.7 -16.2,-44.7 -15.8,44.7 32,0 z m 70.3,47.7 0,-100.1 -34.8,0 0,-20.4 93.2,0 0,20.4 -34.7,0 0,100.1 -23.7,0 z m 73,0 0,-120.5 23.7,0 0,120.5 -23.7,0 z m 41.4,-59.5 c 0,-12.3 1.8,-22.6 5.4,-30.9 2.7,-6.1 6.3,-11.6 10.9,-16.5 4.6,-4.8 9.7,-8.5 15.2,-10.8 7.3,-3.2 15.7,-4.8 25.3,-4.8 17.3,0 31.1,5.5 41.5,16.5 10.4,11 15.6,26.3 15.6,45.9 0,19.5 -5.2,34.7 -15.5,45.7 -10.3,11 -24.1,16.5 -41.3,16.5 -17.4,0 -31.3,-5.5 -41.6,-16.4 -10.3,-11 -15.5,-26 -15.5,-45.2 z m 24.4,-0.8 c 0,13.6 3.1,24 9.2,31 6.1,7 13.9,10.6 23.4,10.6 9.4,0 17.2,-3.5 23.2,-10.5 6,-7 9.1,-17.5 9.1,-31.4 0,-13.8 -2.9,-24.1 -8.8,-30.9 -5.9,-6.8 -13.7,-10.2 -23.5,-10.2 -9.8,0 -17.6,3.4 -23.6,10.3 -6,6.8 -9,17.2 -9,31.1 z m 108,60.3 0,-120.5 23,0 48,80.5 0,-80.5 22,0 0,120.5 -23.8,0 -47.3,-78.6 0,78.6 -21.9,0 z m 223.8,0 -25.8,0 -10.2,-27.4 -46.9,0 -9.7,27.4 -25.1,0 45.7,-120.5 25,0 47,120.5 z m -43.6,-47.7 -16.2,-44.7 -15.8,44.7 32,0 z m 56.8,47.7 0,-119.5 23.7,0 0,99.2 58.9,0 0,20.3 -82.6,0 z m 196.5,-44.3 0,-20.3 51,0 0,48 c -5,4.9 -12.1,9.3 -21.6,13.1 -9.4,3.7 -18.9,5.6 -28.6,5.6 -12.3,0 -22.9,-2.6 -32.1,-7.9 -9.1,-5.3 -16,-12.9 -20.6,-22.7 -4.6,-9.9 -6.9,-20.5 -6.9,-32.1 0,-12.5 2.6,-23.7 7.7,-33.5 5.1,-9.7 12.6,-17.2 22.5,-22.4 7.5,-4 16.9,-6 28.1,-6 14.6,0 25.9,3.1 34.1,9.4 8.2,6.3 13.5,15 15.8,26 l -23.5,4.5 c -1.7,-5.9 -4.8,-10.6 -9.3,-14 -4.6,-3.4 -10.2,-5.1 -17.1,-5.1 -10.4,0 -18.6,3.4 -24.7,10.1 -6.1,6.8 -9.2,16.8 -9.2,30 0,14.3 3.1,25 9.3,32.2 6.2,7.2 14.3,10.7 24.3,10.7 5,0 9.9,-1 14.9,-3 5,-2 9.3,-4.4 12.8,-7.3 l 0,-15.3 -26.9,0 z m 73,44.3 0,-120.5 49.8,0 c 12.5,0 21.6,1.1 27.3,3.2 5.7,2.2 10.2,6 13.6,11.5 3.4,5.6 5.1,11.9 5.1,19 0,9 -2.6,16.5 -7.8,22.4 -5.2,5.9 -12.9,9.6 -23.2,11.1 5.1,3.1 9.4,6.5 12.7,10.1 3.3,3.7 7.8,10.2 13.5,19.6 l 14.3,23.5 -28.3,0 -17.1,-26.2 c -6.1,-9.4 -10.2,-15.3 -12.5,-17.7 -2.2,-2.4 -4.6,-4.1 -7.1,-5 -2.5,-0.9 -6.5,-1.4 -11.9,-1.4 l -4.8,0 0,50.3 -23.6,0 z m 23.7,-69.6 17.5,0 c 11.4,0 18.5,-0.5 21.3,-1.5 2.8,-1 5,-2.7 6.6,-5.1 1.6,-2.4 2.4,-5.4 2.4,-9 0,-4.1 -1.1,-7.3 -3.2,-9.8 -2.1,-2.5 -5.1,-4.1 -8.9,-4.7 -1.9,-0.3 -7.7,-0.4 -17.3,-0.4 l -18.5,0 0,30.5 z m 89.7,10.1 c 0,-12.3 1.8,-22.6 5.3,-30.9 2.7,-6.1 6.3,-11.6 10.9,-16.5 4.6,-4.8 9.7,-8.5 15.2,-10.8 7.3,-3.2 15.7,-4.8 25.3,-4.8 17.3,0 31.1,5.5 41.5,16.5 10.4,11 15.6,26.3 15.6,45.9 0,19.5 -5.2,34.7 -15.5,45.7 -10.3,11 -24,16.5 -41.2,16.5 -17.4,0 -31.3,-5.5 -41.6,-16.4 -10.4,-11 -15.5,-26 -15.5,-45.2 z m 24.4,-0.8 c 0,13.6 3.1,24 9.2,31 6.1,7 13.9,10.6 23.4,10.6 9.4,0 17.2,-3.5 23.2,-10.5 6,-7 9.1,-17.5 9.1,-31.4 0,-13.8 -2.9,-24.1 -8.8,-30.9 -5.9,-6.8 -13.7,-10.2 -23.5,-10.2 -9.8,0 -17.6,3.4 -23.6,10.3 -6,6.8 -9,17.2 -9,31.1 z m 107.6,-60.2 23.7,0 0,65.3 c 0,10.4 0.3,17.1 0.9,20.2 1,4.9 3.4,8.9 7.2,11.9 3.8,3 9,4.5 15.6,4.5 6.7,0 11.8,-1.4 15.2,-4.2 3.4,-2.8 5.5,-6.3 6.1,-10.4 0.7,-4.1 1,-10.9 1,-20.5 l 0,-66.7 23.7,0 0,63.3 c 0,14.5 -0.6,24.7 -1.9,30.7 -1.3,6 -3.6,11 -7.1,15.1 -3.4,4.1 -8.1,7.4 -13.8,9.8 -5.8,2.4 -13.3,3.6 -22.6,3.6 -11.2,0 -19.7,-1.3 -25.5,-4 -5.8,-2.7 -10.3,-6.1 -13.7,-10.3 -3.4,-4.2 -5.6,-8.7 -6.6,-13.4 -1.6,-6.9 -2.3,-17.1 -2.3,-30.6 l 0,-64.3 z m 118.5,120.5 0,-120.5 38,0 c 14.4,0 23.8,0.6 28.2,1.8 6.7,1.8 12.4,5.7 16.9,11.8 4.5,6.1 6.8,13.9 6.8,23.5 0,7.4 -1.3,13.6 -3.9,18.7 -2.6,5.1 -5.9,9 -10,11.9 -4,2.9 -8.1,4.8 -12.3,5.7 -5.7,1.2 -13.8,1.7 -24.6,1.7 l -15.4,0 0,45.5 -23.7,0 z m 23.7,-100.1 0,34.2 12.9,0 c 9.3,0 15.6,-0.6 18.7,-1.9 3.1,-1.3 5.6,-3.2 7.4,-5.9 1.8,-2.7 2.7,-5.8 2.7,-9.4 0,-4.4 -1.3,-8 -3.8,-10.9 -2.5,-2.8 -5.7,-4.6 -9.5,-5.3 -2.8,-0.6 -8.5,-0.8 -17,-0.8 l -11.4,0 z"
       id="path7"
       inkscape:connector-curvature="0"
       style="clip-rule:evenodd;fill:#ffd700;fill-rule:evenodd;fill-opacity:1" /><path
       class="st0"
       d="m 1730.7,1174.7 -247,0 0,-22 c 24.9,-1.5 42.2,-4.3 51.7,-8.8 18.1,-8.1 27.1,-23.5 27.1,-46.3 0,-18.2 -6,-44.7 -18.1,-79.3 l -38.8,-109 -266.4,0 -42.6,139.9 c -5.1,17.7 -7.7,33.8 -7.7,48.5 0,23.5 7.3,38.9 22.1,46.3 6.9,4.5 20.1,7.3 40,8.8 l 0,22 -182.3,0 0,-22 c 6.8,-1.5 14.1,-3.2 22.1,-5.5 7.7,-2.3 15,-8.5 21.8,-18.8 13.9,-20.5 36.6,-78.6 68.6,-173.9 l 203.1,-604.8 7.7,0 245.7,695.1 c 16.3,44.7 31.6,74.5 45.2,89.3 9.5,9.4 25.4,15.8 47.9,18.6 l 0,21.9 z m -239.3,-306.1 -121.6,-361.4 -119,361.4 240.6,0 z m 901.4,306.1 -228.9,0 0,-22 c 36.2,-3.6 58.7,-12.8 67.3,-27.4 8.6,-14.7 12.8,-48.5 12.8,-101.3 l -3.8,-592.8 -188.9,743.6 -14.1,0 -190.2,-742.6 -7.7,-2.3 0,569.7 c 0,54.3 1.8,86.7 5.3,96.8 9.5,33.8 34.9,52.6 76.1,56.2 l 0,22 -190,0 0,-22 c 25.8,-5.1 42.6,-14.7 50.5,-28.6 10.2,-20.5 15.5,-62 15.5,-124.5 l 0,-515.4 c 0,-41.2 -5.3,-68.8 -15.5,-82.7 -7.9,-8.8 -24.3,-14.3 -49.2,-16.5 l 0,-20.9 169.3,0 159.1,645.6 157.8,-645.6 174.6,0 0,20.9 c -34.4,3 -56.1,15.4 -64.7,37.4 -3.5,8.8 -5.1,32.7 -5.1,71.6 l 0,545.4 c 0,40.4 1.5,64.9 5.1,73.7 7.7,22.7 29.4,36.1 64.7,39.7 l 0,22 z M 3007.1,972 c 0,55.8 -20.7,104.7 -62,146.6 -49.2,47 -115.9,70.5 -200.4,70.5 -37.1,0 -74.6,-7.3 -112.6,-22.2 -37.1,-13.2 -59.6,-19.7 -67.3,-19.7 -29.4,0 -45.7,13.5 -49,40.8 l -28.5,0 -38.9,-250 31.1,0 c 49,144.6 133.5,217 253.4,217 52.5,0 97.3,-15.4 134.4,-46.2 37.1,-30.1 55.6,-63.2 55.6,-99.1 0,-38.4 -13.7,-72.4 -41.3,-102.5 -31.1,-33.8 -92.3,-77.3 -183.6,-130.1 -82.8,-47 -132.4,-78.2 -148.8,-93.6 -42.2,-35.9 -63.3,-80.5 -63.3,-133.3 0,-64.7 22.7,-115.6 68.4,-153 41.5,-34.6 92.7,-51.9 154.1,-51.9 29.3,0 64.7,7 105.9,21.1 41.5,13.9 65.1,20.9 71.1,20.9 16.5,0 26.5,-5.1 29.8,-15.4 2.6,-8.8 4.9,-17.7 6.4,-26.5 l 28.5,0 28.5,251.2 -30.9,0 c -13.9,-60.2 -38.4,-109.8 -73.7,-148.7 -43.3,-47 -96.2,-70.5 -159.1,-70.5 -37.1,0 -70.6,10.3 -100.9,30.8 -35.3,25.8 -53,58.9 -53,99.3 0,52.1 37.5,102.8 112.4,151.9 70,42.7 140.1,85.5 211,129 77.4,55.6 118.5,116.9 122.7,183.6 z"
       id="path9"
       inkscape:connector-curvature="0"
       style="clip-rule:evenodd;fill:#ffd700;fill-rule:evenodd;fill-opacity:1" /><g
       id="g11"><path
         class="st0"
         d="m 231.5,1143.5 c 21.2,43.3 47.1,82.8 77.3,116.8 l 55.3,0 c -20.2,-31 -37.6,-65.9 -52.1,-103.7 -1.7,-4.4 -3.3,-8.8 -4.9,-13.3 l -75.6,0.2 z"
         id="path13"
         inkscape:connector-curvature="0"
         style="clip-rule:evenodd;fill:#ffd700;fill-rule:evenodd;fill-opacity:1" /><path
         class="st0"
         d="m 183,1006.2 c 9.7,41.5 23.1,81.6 40,119.3 l 77.9,-0.3 c -12.4,-37.7 -22.1,-77.7 -28.9,-119 l -89,0 z"
         id="path15"
         inkscape:connector-curvature="0"
         style="clip-rule:evenodd;fill:#ffd700;fill-rule:evenodd;fill-opacity:1" /><path
         class="st0"
         d="m 165.2,870.2 c 0.5,15.2 1.5,30.4 2.9,45.6 2.4,24.4 6,48.6 10.9,72.4 l 90,-0.1 c -4.1,-28.5 -7,-57.5 -8.5,-86.6 -0.5,-10.5 -0.9,-20.9 -1.1,-31.4 l -94.2,0.1 z"
         id="path17"
         inkscape:connector-curvature="0"
         style="clip-rule:evenodd;fill:#ffd700;fill-rule:evenodd;fill-opacity:1" /><path
         class="st0"
         d="m 174.8,734.2 c -6.9,38.7 -10.1,78.4 -9.9,118 l 94.5,-0.1 c 0,-39.7 2.5,-79.3 7.6,-118 l -92.2,0.1 z"
         id="path19"
         inkscape:connector-curvature="0"
         style="clip-rule:evenodd;fill:#ffd700;fill-rule:evenodd;fill-opacity:1" /><path
         class="st0"
         d="m 456.2,357.1 c -45.8,21 -85.8,48.5 -120.2,81 l 42.7,0 c 22.5,-31.9 48.3,-59.3 77.5,-81 z"
         id="path21"
         inkscape:connector-curvature="0"
         style="clip-rule:evenodd;fill:#ffd700;fill-rule:evenodd;fill-opacity:1" /><path
         class="st0"
         d="m 258.7,1278.3 c 41.6,30.3 89.2,54.2 142,69.5 -36.9,-17.9 -70.4,-41.5 -99.9,-69.5 l -42.1,0 z"
         id="path23"
         inkscape:connector-curvature="0"
         style="clip-rule:evenodd;fill:#ffd700;fill-rule:evenodd;fill-opacity:1" /><path
         class="st0"
         d="m 146.5,1143.9 c 25.4,43.5 56.4,83.2 92.5,117.1 l 0,-0.6 46,0 c -27.8,-33.5 -51.8,-71.6 -71.7,-112.9 l -1.8,-3.8 -65,0.2 z"
         id="path25"
         inkscape:connector-curvature="0"
         style="clip-rule:evenodd;fill:#ffd700;fill-rule:evenodd;fill-opacity:1" /><path
         class="st0"
         d="m 88.7,1006.3 c 10.7,38.5 25.2,75.8 43.3,111 1.5,2.9 3,5.7 4.5,8.6 l 66.9,-0.3 C 187,1087.8 174,1047.7 164.6,1006.3 l -75.9,0 z"
         id="path27"
         inkscape:connector-curvature="0"
         style="clip-rule:evenodd;fill:#ffd700;fill-rule:evenodd;fill-opacity:1" /><path
         class="st0"
         d="m 67.3,870.2 c 0.5,12.3 1.4,24.5 2.6,36.7 2.8,27.4 7.5,54.6 14.1,81.3 l 76.7,0 c -4.6,-23.3 -8.2,-47 -10.5,-70.8 -1.5,-15.7 -2.5,-31.5 -3,-47.3 l -79.9,0.1 z"
         id="path29"
         inkscape:connector-curvature="0"
         style="clip-rule:evenodd;fill:#ffd700;fill-rule:evenodd;fill-opacity:1" /><path
         class="st0"
         d="m 78.2,734.2 c -8,38.7 -11.8,78.4 -11.4,118 l 80.1,0 c -0.2,-39.6 2.9,-79.2 9.6,-118 l -78.3,0 z"
         id="path31"
         inkscape:connector-curvature="0"
         style="clip-rule:evenodd;fill:#ffd700;fill-rule:evenodd;fill-opacity:1" /><path
         class="st0"
         d="m 414.2,356.4 c -55.5,21.1 -103.8,48.9 -145.3,81.8 l 39.7,0 c 30.5,-31.7 65.6,-59.3 105.6,-81.8 z"
         id="path33"
         inkscape:connector-curvature="0"
         style="clip-rule:evenodd;fill:#ffd700;fill-rule:evenodd;fill-opacity:1" /><path
         class="st0"
         d="m 540.4,1363.8 c -34.9,-18.9 -64.5,-48.4 -89,-85.6 l -52.3,0 c 38.5,43 85.8,73.6 141.3,85.6 z"
         id="path35"
         inkscape:connector-curvature="0"
         style="clip-rule:evenodd;fill:#ffd700;fill-rule:evenodd;fill-opacity:1" /><path
         class="st0"
         d="m 472.4,1278.2 c 23.3,38.3 51.1,68.1 83.4,86.4 -15.2,-20.6 -28.7,-50.1 -40.2,-86.4 l -43.2,0 z"
         id="path37"
         inkscape:connector-curvature="0"
         style="clip-rule:evenodd;fill:#ffd700;fill-rule:evenodd;fill-opacity:1" /><path
         class="st0"
         d="m 392.7,1124.8 c -9.4,-37.6 -16.5,-77.5 -21.5,-118.7 l -81,0 c 7,41.3 16.9,81.4 29.6,118.9 l 72.9,-0.2 z"
         id="path39"
         inkscape:connector-curvature="0"
         style="clip-rule:evenodd;fill:#ffd700;fill-rule:evenodd;fill-opacity:1" /><path
         class="st0"
         d="m 438.5,1253.8 c -16.3,-33.1 -30,-70.5 -41,-110.9 l -71.1,0.3 c 0.9,2.3 1.7,4.6 2.6,7 15.6,40.7 34.6,77.9 56.9,110.1 l 55.8,0 c -1.1,-2.2 -2.2,-4.4 -3.2,-6.5 z"
         id="path41"
         inkscape:connector-curvature="0"
         style="clip-rule:evenodd;fill:#ffd700;fill-rule:evenodd;fill-opacity:1" /><path
         class="st0"
         d="m 416.1,1142.8 c 10.5,37.5 23.3,72.2 38.5,103 2.4,4.9 4.9,9.7 7.4,14.4 l 48,0 c -9.9,-34.6 -18.1,-74.4 -24.8,-117.6 l -69.1,0.2 z"
         id="path43"
         inkscape:connector-curvature="0"
         style="clip-rule:evenodd;fill:#ffd700;fill-rule:evenodd;fill-opacity:1" /><path
         class="st0"
         d="m 389.4,1006.1 c 5,41.3 12.3,81.2 21.9,118.6 l 71.4,-0.3 c -5.2,-37.4 -9.3,-77.2 -12.1,-118.4 l -81.2,0.1 z"
         id="path45"
         inkscape:connector-curvature="0"
         style="clip-rule:evenodd;fill:#ffd700;fill-rule:evenodd;fill-opacity:1" /><path
         class="st0"
         d="m 362.9,852.1 c 0.3,-39.6 2.5,-79.2 6.6,-118 l -84.3,0 c -5.2,38.7 -7.7,78.3 -7.7,118 l 85.4,0 z"
         id="path47"
         inkscape:connector-curvature="0"
         style="clip-rule:evenodd;fill:#ffd700;fill-rule:evenodd;fill-opacity:1" /><path
         class="st0"
         d="m 363.7,910.3 c -0.5,-13.4 -0.8,-26.8 -0.9,-40.2 l -85.2,0 c 0.2,10.2 0.5,20.3 1.1,30.5 1.5,29.5 4.4,58.8 8.7,87.5 l 81.8,0 c -2.6,-25.6 -4.5,-51.6 -5.5,-77.8 z"
         id="path49"
         inkscape:connector-curvature="0"
         style="clip-rule:evenodd;fill:#ffd700;fill-rule:evenodd;fill-opacity:1" /><path
         class="st0"
         d="m 380.9,870.1 c 0.1,13.2 0.4,26.4 0.9,39.6 1,26.4 2.9,52.7 5.6,78.4 l 82.1,0 c -0.8,-14.1 -1.5,-28.4 -2.1,-42.7 -0.9,-24.8 -1.4,-50 -1.5,-75.3 l -85,0 z"
         id="path51"
         inkscape:connector-curvature="0"
         style="clip-rule:evenodd;fill:#ffd700;fill-rule:evenodd;fill-opacity:1" /><path
         class="st0"
         d="m 387.6,734.1 c -4.1,38.8 -6.4,78.4 -6.7,118 l 85,0 c 0.2,-39.4 1.5,-79 4,-118 l -82.3,0 z"
         id="path53"
         inkscape:connector-curvature="0"
         style="clip-rule:evenodd;fill:#ffd700;fill-rule:evenodd;fill-opacity:1" /><path
         class="st0"
         d="m 451.2,438.1 c 17.8,-36.2 38.2,-67.4 61.3,-91.9 -42.8,20 -79.6,51.7 -110.4,92 l 49.1,-0.1 z"
         id="path55"
         inkscape:connector-curvature="0"
         style="clip-rule:evenodd;fill:#ffd700;fill-rule:evenodd;fill-opacity:1" /><path
         class="st0"
         d="m 551.2,342.3 c -33.1,23 -55.4,49.5 -79.3,95.8 l 45.8,0 c 6.5,-23.2 13.5,-44.8 21.3,-64.6 5.7,-14.9 5.6,-18.6 12.2,-31.2 z"
         id="path57"
         inkscape:connector-curvature="0"
         style="clip-rule:evenodd;fill:#ffd700;fill-rule:evenodd;fill-opacity:1" /><path
         class="st0"
         d="m 572.2,437.9 -0.6,-92.8 c -5.7,11.1 -11,23.2 -16.1,36.2 -6.8,17.4 -13.1,36.4 -18.9,56.6 l 35.6,0 z"
         id="path59"
         inkscape:connector-curvature="0"
         style="clip-rule:evenodd;fill:#ffd700;fill-rule:evenodd;fill-opacity:1" /><path
         class="st0"
         d="m 575.4,852 -0.9,-118 -86.6,0 c -2.4,38.9 -3.7,78.5 -4,118 l 91.5,0 z"
         id="path61"
         inkscape:connector-curvature="0"
         style="clip-rule:evenodd;fill:#ffd700;fill-rule:evenodd;fill-opacity:1" /><path
         class="st0"
         d="m 576.5,988 -0.9,-118 -91.6,0 c 0.1,25.1 0.6,50 1.5,74.6 0.5,14.6 1.3,29.1 2.1,43.4 l 88.9,0 z"
         id="path63"
         inkscape:connector-curvature="0"
         style="clip-rule:evenodd;fill:#ffd700;fill-rule:evenodd;fill-opacity:1" /><path
         class="st0"
         d="m 577.5,1124.1 -0.9,-118.1 -87.9,0 c 2.8,41.3 6.8,81.1 12,118.3 l 76.8,-0.2 z"
         id="path65"
         inkscape:connector-curvature="0"
         style="clip-rule:evenodd;fill:#ffd700;fill-rule:evenodd;fill-opacity:1" /><path
         class="st0"
         d="m 578.6,1260.1 -0.9,-117.9 -74.4,0.3 c 6.7,43.8 15,83.6 24.9,117.7 l 50.4,-0.1 z"
         id="path67"
         inkscape:connector-curvature="0"
         style="clip-rule:evenodd;fill:#ffd700;fill-rule:evenodd;fill-opacity:1" /><path
         class="st0"
         d="m 579.4,1364.7 -0.7,-86.5 -44.9,0 c 12.9,39.2 28.2,69.2 45.6,86.5 z"
         id="path69"
         inkscape:connector-curvature="0"
         style="clip-rule:evenodd;fill:#ffd700;fill-rule:evenodd;fill-opacity:1" /><path
         class="st0"
         d="m 196.6,598.9 -69.5,0 c -15.4,28.6 -27.7,58.6 -37.1,89.3 -2.8,9.2 -5.4,18.5 -7.7,27.9 l 77.6,0 c 2.7,-13.5 5.9,-26.8 9.5,-40 7.2,-26.4 16.3,-52.3 27.2,-77.2 z"
         id="path71"
         inkscape:connector-curvature="0"
         style="clip-rule:evenodd;fill:#ffd700;fill-rule:evenodd;fill-opacity:1" /><path
         class="st0"
         d="m 296.7,598.8 -80.4,0.1 c -12,26.3 -21.8,53.8 -29.5,82 -3.2,11.6 -6,23.4 -8.5,35.3 l 91.2,0 c 4.1,-27 9.5,-53.4 16.1,-79.1 3.4,-13 7.1,-25.8 11.1,-38.3 z"
         id="path73"
         inkscape:connector-curvature="0"
         style="clip-rule:evenodd;fill:#ffd700;fill-rule:evenodd;fill-opacity:1" /><path
         class="st0"
         d="m 392.2,598.8 -76.5,0 c -4.6,13.9 -8.8,28.2 -12.6,42.7 -6.3,24.2 -11.4,49.1 -15.3,74.5 l 83.7,0 c 4.8,-40.4 11.7,-79.8 20.7,-117.2 z"
         id="path75"
         inkscape:connector-curvature="0"
         style="clip-rule:evenodd;fill:#ffd700;fill-rule:evenodd;fill-opacity:1" /><path
         class="st0"
         d="m 483.4,598.7 -72.6,0 c -9.1,37.3 -16.2,76.7 -21.2,117.2 l 81.4,0 c 3,-40.1 7,-79.5 12.4,-117.2 z"
         id="path77"
         inkscape:connector-curvature="0"
         style="clip-rule:evenodd;fill:#ffd700;fill-rule:evenodd;fill-opacity:1" /><path
         class="st0"
         d="m 573.5,598.7 -71.9,0 c -5.4,37.6 -9.5,77 -12.4,117.2 l 85.2,0 -0.9,-117.2 z"
         id="path79"
         inkscape:connector-curvature="0"
         style="clip-rule:evenodd;fill:#ffd700;fill-rule:evenodd;fill-opacity:1" /><path
         class="st0"
         d="m 504.3,580.7 69.1,0 -1,-124.6 -41.3,0 c -10.9,37.7 -19.8,79.7 -26.8,124.6 z"
         id="path81"
         inkscape:connector-curvature="0"
         style="clip-rule:evenodd;fill:#ffd700;fill-rule:evenodd;fill-opacity:1" /><path
         class="st0"
         d="m 415.5,580.7 70.6,0 C 493,536 501.7,494 512.4,456.1 l -50.3,0 c -14,27.4 -26.3,58 -36.7,90.8 -3.6,11.1 -6.9,22.3 -9.9,33.8 z"
         id="path83"
         inkscape:connector-curvature="0"
         style="clip-rule:evenodd;fill:#ffd700;fill-rule:evenodd;fill-opacity:1" /><path
         class="st0"
         d="m 322,580.8 74.8,0 c 3.5,-13.4 7.3,-26.5 11.3,-39.3 9.7,-30.6 21,-59.2 33.8,-85.4 l -54.2,0 c -27,36.1 -48.8,78.3 -65.7,124.7 z"
         id="path85"
         inkscape:connector-curvature="0"
         style="clip-rule:evenodd;fill:#ffd700;fill-rule:evenodd;fill-opacity:1" /><path
         class="st0"
         d="m 225,580.8 77.8,0 c 16.2,-45.8 37,-88 62.5,-124.6 l -49.2,0 c -37.7,36.4 -67.9,78.6 -91.1,124.6 z"
         id="path87"
         inkscape:connector-curvature="0"
         style="clip-rule:evenodd;fill:#ffd700;fill-rule:evenodd;fill-opacity:1" /><path
         class="st0"
         d="m 137.3,580.9 67.5,0 c 21.9,-45.5 50.3,-87.7 85.6,-124.6 l -45.1,0 c -44.8,36.3 -80.6,78.6 -108,124.6 z"
         id="path89"
         inkscape:connector-curvature="0"
         style="clip-rule:evenodd;fill:#ffd700;fill-rule:evenodd;fill-opacity:1" /><path
         class="st0"
         d="m 325.8,1278.3 c 43,37.5 93.7,65.6 151,80.3 -38.3,-18.6 -71.8,-46.2 -100.3,-80.4 l -50.7,0.1 z"
         id="path91"
         inkscape:connector-curvature="0"
         style="clip-rule:evenodd;fill:#ffd700;fill-rule:evenodd;fill-opacity:1" /></g><path
       class="st0"
       d="m 613.3,341.3 654.5,0 0,68.2 -654.5,0 0,-68.2 z m 0,951.9 42.9,0 0.6,32.8 c 27.9,11.5 8.3,-17.8 32.4,-19 39.5,-33.5 84,22.1 157.2,2.4 10.6,-2.9 22,-8.5 33.1,-16.2 l 38.9,0 0,68.2 -305.1,0 0,-68.2 z m 54.2,0 23,0 c -7.3,8.2 -17.2,20.1 -21.4,22.2 -1.6,-6 -2.1,-13.7 -1.6,-22.2 z m -54.2,-105.8 46.7,0 -0.2,1.6 c -2.1,15.5 -1.8,41.3 -4.5,53.3 l 0.2,13.4 -42.2,0 0,-68.3 z m 123.9,0 60.5,0 c -35.1,4.5 -70.2,25.3 -92.9,68.2 l -30.1,0 c 3.5,-10.6 8.1,-20.5 13.7,-28.2 12.9,-17.5 29.7,-29.5 48.8,-40 z m 93.5,0 98.5,0 c -13.6,7 -22.1,7.8 -45.9,6 -17.5,-1.2 -35.4,-4.4 -52.6,-6 z m 117.3,0 11.5,0 0,68.2 -42.1,0 c 13.2,-18.4 29.8,-48.4 30.6,-68.2 z m -213,68.2 -20.8,0 c 18.5,-13.4 37.8,-32.8 87.1,-35.1 45.4,-2.1 71.5,8.9 111.3,-5.9 -42,33 -101.7,-6.7 -177.6,41 z m -121.7,-174 5.6,0 c -1,17.1 -1.6,45.5 -0.7,68.2 l -5,0 0,-68.2 z m 46.6,0 29.2,0 c -9.5,22 -16.9,45.3 -22.2,68.2 l -27.7,0 1.9,-7.8 c 5.1,-22.4 11.1,-42.2 18.8,-60.4 z m 230,0 107.7,0 0,68.2 -186.6,0 c 26.8,-15.3 54.1,-35.6 78.9,-68.2 z m -276.6,-105.7 40.6,0 c -11.6,15.6 -23.7,33.5 -30.5,68.2 l -10.1,0 0,-68.2 z m 126.8,0 28.2,0 c -15.7,14.6 -30.5,28.9 -42.4,43.6 -6.2,7.7 -12,15.9 -17.3,24.6 l -28.9,0 c 11.5,-18 25.6,-35 43.5,-52.5 5.4,-5.4 11.1,-10.7 16.9,-15.7 z m 191.4,0 101.4,0 0,68.2 -121,0 c 10.4,-22.6 16.1,-43.9 19.6,-68.2 z m -318.2,-105.8 157.7,0 c -16.6,11.6 -31.9,22.1 -48.3,34.5 -4.1,3.1 -26,22.1 -39.5,33.7 l -69.9,0 0,-68.2 z m 238,0 9.8,0 c -12.2,25 -31.6,47.3 -52.9,68.2 l -22.6,0 c 5.2,-4.3 10.5,-8.6 15.6,-13.1 25.6,-22 37,-35.2 50.1,-55.1 z m 78.6,0 144,0 0,68.2 -139.3,0 c 0.2,-6.5 0.2,-12.8 -0.1,-18.7 -0.4,-9.1 -4.3,-42.7 -3.2,-45.9 -0.3,-0.5 -0.8,-1.8 -1.4,-3.6 z m -316.6,-105.8 252.1,0 c -5.8,25.5 -25.1,48.9 -46.1,68.2 l -206,0 0,-68.2 z m 276.3,0 223.9,0 0,68.2 -192.2,0 c -0.6,-2.5 -1.2,-4.5 -1.7,-5.9 -5.8,-16 -10.5,-27.7 -18.5,-45.3 l -11.5,-17 z m -276.3,-105.7 539.8,0 0,68.2 -539.8,0 0,-68.2 z m 0,-105.8 580.9,0 0,68.2 -580.9,0 0,-68.2 z m 0,-105.8 617.6,0 0,68.2 -617.6,0 0,-68.2 z"
       id="path93"
       inkscape:connector-curvature="0"
       style="clip-rule:evenodd;fill:#ffd700;fill-rule:evenodd;fill-opacity:1" /><path
       class="st0"
       d="m 861.5,750.2 c -9.3,44.5 -59.9,83 -90.6,104.3 -18.2,12.7 -34.7,23.9 -52.4,37.4 -6,4.6 -49.9,42.8 -50,42.8 -16.2,33.4 -46.8,44.8 -53.3,127.5 -2.9,37.5 -4.6,181.2 21.7,67.1 14.6,-63.3 35.9,-105.2 82,-150.5 24.7,-24.2 52.4,-44 78.2,-66.3 37.5,-32.4 44.7,-45.7 71.2,-89.4 -13.6,76.9 -101.3,127.8 -146.6,183.7 -37.2,46 -58.3,111.9 -66.1,169.5 -2.1,15.5 -1.8,41.3 -4.5,53.3 l 1.5,83.6 c 27.9,11.5 8.3,-17.8 32.4,-19 39.5,-33.5 84,22.1 157.2,2.4 21.5,-5.8 46.1,-22.8 65.3,-46.3 15.7,-19.3 42.8,-65.4 34.9,-85.6 -26.8,15.9 -30.9,18.4 -63.3,16 -23.2,-1.7 -47.1,-6.7 -69.2,-7 -42.4,-0.5 -87.7,21.7 -113.4,77.3 24.5,-11.3 39.6,-40.4 100.5,-43.3 45.4,-2.1 71.5,8.9 111.3,-5.9 -48.9,38.4 -121.8,-21.7 -216.4,72.4 -6.3,6.3 -21.6,25.6 -27.1,28.4 -5.5,-21.1 2.3,-64.6 19.4,-87.9 45,-61.4 138,-54.7 208.4,-155.3 22.2,-37 31.3,-66.9 35.7,-104.9 1.9,-16 2.6,-33 2,-47.6 -0.3,-9.1 -4.3,-42.7 -3.2,-45.9 -2.9,-3.9 -8.7,-38.6 -11.8,-47.1 -5.8,-16 -10.5,-27.7 -18.5,-45.3 l -29.4,-43.6 -1.3,1 -4.6,24.2 z"
       id="path95"
       inkscape:connector-curvature="0"
       style="clip-rule:evenodd;fill:#ffd700;fill-rule:evenodd;fill-opacity:1" /></g></svg>