<?xml version="1.0" encoding="UTF-8" standalone="no"?>
<!-- Generator: Adobe Illustrator 19.2.0, SVG Export Plug-In . SVG Version: 6.00 Build 0)  -->

<svg
   xmlns:dc="http://purl.org/dc/elements/1.1/"
   xmlns:cc="http://creativecommons.org/ns#"
   xmlns:rdf="http://www.w3.org/1999/02/22-rdf-syntax-ns#"
   xmlns:svg="http://www.w3.org/2000/svg"
   xmlns="http://www.w3.org/2000/svg"
   xmlns:sodipodi="http://sodipodi.sourceforge.net/DTD/sodipodi-0.dtd"
   xmlns:inkscape="http://www.inkscape.org/namespaces/inkscape"
   version="1.1"
   id="Layer_4"
   x="0px"
   y="0px"
   viewBox="0 0 495.89999 365.60001"
   xml:space="preserve"
   inkscape:version="0.91 r13725"
   sodipodi:docname="mail.svg"
   width="495.89999"
   height="365.60001"><metadata
     id="metadata19"><rdf:RDF><cc:Work
         rdf:about=""><dc:format>image/svg+xml</dc:format><dc:type
           rdf:resource="http://purl.org/dc/dcmitype/StillImage" /><dc:title /></cc:Work></rdf:RDF></metadata><defs
     id="defs17" /><sodipodi:namedview
     pagecolor="#ffffff"
     bordercolor="#666666"
     borderopacity="1"
     objecttolerance="10"
     gridtolerance="10"
     guidetolerance="10"
     inkscape:pageopacity="0"
     inkscape:pageshadow="2"
     inkscape:window-width="2777"
     inkscape:window-height="1504"
     id="namedview15"
     showgrid="false"
     fit-margin-top="0"
     fit-margin-left="0"
     fit-margin-right="0"
     fit-margin-bottom="0"
     inkscape:zoom="1.3037281"
     inkscape:cx="36.159312"
     inkscape:cy="112.61663"
     inkscape:window-x="0"
     inkscape:window-y="48"
     inkscape:window-maximized="0"
     inkscape:current-layer="Layer_4" /><style
     type="text/css"
     id="style3">
	.st0{fill:#FEE258;}
</style><polygon
     class="st0"
     points="212.6,304.8 116.1,403.3 234.5,320.3 "
     id="polygon5"
     style="fill:#fee258"
     transform="translate(-9.2,-80.5)" /><polygon
     class="st0"
     points="83.6,98.4 83.6,81.4 10.2,81.4 10.2,446.1 83.6,446.1 83.6,206.6 42.9,171.6 83.6,201 83.6,200.9 118.3,226.1 163.3,258.6 163.3,258.8 257.9,327.3 352.1,258.8 352.1,258.6 397,226.1 431.7,200.9 431.7,201 472.4,171.6 431.7,206.6 431.7,442.8 505.1,442.8 505.1,81.4 431.7,81.4 431.7,98.4 257.8,224.5 "
     id="polygon7"
     style="fill:#ffd700;fill-opacity:1"
     transform="translate(-9.2,-80.5)" /><polygon
     class="st0"
     points="301.6,307.4 400,403.3 283.2,319.5 "
     id="polygon9"
     style="fill:#fee258"
     transform="translate(-9.2,-80.5)" /><g
     id="g11"
     transform="translate(-9.2,-80.5)"><path
       class="st0"
       d="m 505,445.6 -495.8,0 0,-365.1 495.8,0 0,365.1 z m -18.4,-346.7 -459,0 0,328.2 459,0 0,-328.2 0,0 z"
       id="path13"
       inkscape:connector-curvature="0"
       style="fill:#fee258" /></g></svg>