<?xml version="1.0" encoding="utf-8"?>
<!-- Generator: Adobe Illustrator 19.2.0, SVG Export Plug-In . SVG Version: 6.00 Build 0)  -->
<svg version="1.1" id="Слой_1" xmlns="http://www.w3.org/2000/svg" xmlns:xlink="http://www.w3.org/1999/xlink" x="0px" y="0px"
	 viewBox="0 0 32 32" style="enable-background:new 0 0 32 32;" xml:space="preserve">
<style type="text/css">
	.st0{fill:#F7DE64;}
</style>
<g id="Outline_Color_copy_2">
	<path class="st0" d="M28,1c1.7,0,3,1.3,3,3v24c0,1.7-1.3,3-3,3H4c-1.7,0-3-1.3-3-3V4c0-1.7,1.3-3,3-3H28 M28,0H4C1.8,0,0,1.8,0,4
		v24c0,2.2,1.8,4,4,4h24c2.2,0,4-1.8,4-4V4C32,1.8,30.2,0,28,0L28,0z"/>
	<path class="st0" d="M16.8,23.2c-2.9,0.2-4.3-0.5-5.6-1.7c-1.4-1.3-0.8-2.9,0.3-3c1.1-0.1,1.8,1.3,2.4,1.7c0.6,0.4,2.9,1.3,4.2-0.2
		c1.3-1.6-0.9-2.4-2.5-2.6c-2.3-0.4-5.3-1.6-5-4.2c0.2-2.5,2.1-3.8,4.1-4c2.5-0.2,4.2,0.4,5.5,1.5c1.5,1.3,0.7,2.8-0.3,2.9
		c-1,0.1-2-2.1-4.1-2.2c-2.2,0-3.6,2.3-1,3c2.7,0.7,5.5,0.9,6.6,3.4C22.4,20.4,19.8,23.1,16.8,23.2z M25.1,17.3
		c0.1-0.4,0.1-0.8,0.1-1.3c0-5.1-4.1-9.3-9.2-9.3c-0.5,0-1,0-1.5,0.1c-0.9-0.6-1.9-0.9-3-0.9c-3,0-5.5,2.5-5.5,5.6
		c0,1.1,0.3,2.2,0.9,3c-0.1,0.5-0.1,1-0.1,1.5c0,5.1,4.1,9.3,9.2,9.3c0.6,0,1.1-0.1,1.7-0.2c0.8,0.5,1.8,0.8,2.9,0.8
		c3,0,5.5-2.5,5.5-5.6C26.1,19.3,25.7,18.2,25.1,17.3z"/>
</g>
</svg>
