<?xml version="1.0" encoding="UTF-8" standalone="no"?>
<!-- Generator: Adobe Illustrator 19.2.0, SVG Export Plug-In . SVG Version: 6.00 Build 0)  -->

<svg
   xmlns:dc="http://purl.org/dc/elements/1.1/"
   xmlns:cc="http://creativecommons.org/ns#"
   xmlns:rdf="http://www.w3.org/1999/02/22-rdf-syntax-ns#"
   xmlns:svg="http://www.w3.org/2000/svg"
   xmlns="http://www.w3.org/2000/svg"
   xmlns:sodipodi="http://sodipodi.sourceforge.net/DTD/sodipodi-0.dtd"
   xmlns:inkscape="http://www.inkscape.org/namespaces/inkscape"
   version="1.1"
   id="Layer_1"
   x="0px"
   y="0px"
   viewBox="0 0 512 512"
   style="enable-background:new 0 0 512 512;"
   xml:space="preserve"
   inkscape:version="0.91 r13725"
   sodipodi:docname="viber.svg"><metadata
     id="metadata11"><rdf:RDF><cc:Work
         rdf:about=""><dc:format>image/svg+xml</dc:format><dc:type
           rdf:resource="http://purl.org/dc/dcmitype/StillImage" /></cc:Work></rdf:RDF></metadata><defs
     id="defs9" /><sodipodi:namedview
     pagecolor="#ffffff"
     bordercolor="#666666"
     borderopacity="1"
     objecttolerance="10"
     gridtolerance="10"
     guidetolerance="10"
     inkscape:pageopacity="0"
     inkscape:pageshadow="2"
     inkscape:window-width="2161"
     inkscape:window-height="1082"
     id="namedview7"
     showgrid="false"
     inkscape:zoom="0.4609375"
     inkscape:cx="-208.27119"
     inkscape:cy="256"
     inkscape:window-x="0"
     inkscape:window-y="48"
     inkscape:window-maximized="0"
     inkscape:current-layer="Layer_1" /><style
     type="text/css"
     id="style3">
	.st0{fill:#F7DE64;}
</style><path
     class="st0"
     d="M0,0v512h512V0H0z M252.2,67.3c0.9-15.9,15.6-10,22.6-11c93.9,3.2,174.7,89.1,173.5,181.8  c-0.1,9.1,3.2,22.6-10.4,22.3c-13-0.3-9.6-13.9-10.7-23c-12.4-98.4-57.5-144.9-155.2-159.9C264,76.2,251.6,78,252.2,67.3z   M392.3,241.6c-14.8,2.3-11.9-11.3-13.4-20.1c-9.9-59.9-30.9-81.8-91.3-95.3c-8.9-2-22.7-0.6-20.4-14.3c2.2-13,14.6-8.6,24-7.5h0  c60.3,7.2,109.5,59.5,109.1,117C399.3,228.2,403.3,239.9,392.3,241.6z M344.9,227.2c-6.5,0.8-10.7-4.7-11.4-11.4  c-2.5-24.7-15.5-39.3-40.3-43.3c-7.4-1.2-14.7-3.6-11.2-13.6c2.3-6.7,8.5-7.4,14.7-7.5c26.7-0.7,58.1,31.4,57.7,59.1  C354.6,218.1,353.8,226.1,344.9,227.2z M449.5,397.9c-10.3,29.1-45.9,58.4-76.4,58.1c-4.3-1.2-12.8-2.5-20.4-5.8  C219.1,392.7,122,298.4,66.9,163c-18.5-45.4,0.8-83.7,47.4-99.4c8.4-2.8,16.6-3,24.8,0c19.9,7.3,70.2,76.6,71.4,97.3  c0.9,15.9-9.9,24.5-20.7,31.8c-20.3,13.8-20.4,31.2-11.7,50.7c19.6,44,53,74.2,96.3,93.8c15.7,7.1,30.7,6.4,41.4-9.8  c19.1-28.9,42.5-27.5,68.1-9.5c12.8,9,25.9,17.8,38.1,27.6v0C438.5,358.8,459.4,369.9,449.5,397.9z"
     id="path5"
     style="fill:#ffd700;fill-opacity:1" /></svg>