<?xml version="1.0" encoding="UTF-8" standalone="no"?>
<!-- Generator: Adobe Illustrator 19.2.0, SVG Export Plug-In . SVG Version: 6.00 Build 0)  -->

<svg
   xmlns:dc="http://purl.org/dc/elements/1.1/"
   xmlns:cc="http://creativecommons.org/ns#"
   xmlns:rdf="http://www.w3.org/1999/02/22-rdf-syntax-ns#"
   xmlns:svg="http://www.w3.org/2000/svg"
   xmlns="http://www.w3.org/2000/svg"
   xmlns:sodipodi="http://sodipodi.sourceforge.net/DTD/sodipodi-0.dtd"
   xmlns:inkscape="http://www.inkscape.org/namespaces/inkscape"
   version="1.1"
   id="Layer_1"
   x="0px"
   y="0px"
   viewBox="0 0 512 512"
   style="enable-background:new 0 0 512 512;"
   xml:space="preserve"
   inkscape:version="0.91 r13725"
   sodipodi:docname="whatsapp.svg"><metadata
     id="metadata15"><rdf:RDF><cc:Work
         rdf:about=""><dc:format>image/svg+xml</dc:format><dc:type
           rdf:resource="http://purl.org/dc/dcmitype/StillImage" /></cc:Work></rdf:RDF></metadata><defs
     id="defs13" /><sodipodi:namedview
     pagecolor="#ffffff"
     bordercolor="#666666"
     borderopacity="1"
     objecttolerance="10"
     gridtolerance="10"
     guidetolerance="10"
     inkscape:pageopacity="0"
     inkscape:pageshadow="2"
     inkscape:window-width="2678"
     inkscape:window-height="1026"
     id="namedview11"
     showgrid="false"
     inkscape:zoom="0.4609375"
     inkscape:cx="-203.93221"
     inkscape:cy="256"
     inkscape:window-x="0"
     inkscape:window-y="48"
     inkscape:window-maximized="0"
     inkscape:current-layer="g5" /><style
     type="text/css"
     id="style3">
	.st0{fill:#F7DE64;}
</style><g
     id="g5"><path
       class="st0"
       d="M259.6,87c-91,0-165.1,73.5-165.1,163.8c0,35.8,11.7,69,31.4,96l-20.6,60.8l63.4-20.2   c26.1,17.1,57.3,27.1,90.8,27.1c91,0,165.1-73.5,165.1-163.8S350.7,87,259.6,87z M356,318.4c-4,11.2-23.7,21.9-32.5,22.7   c-8.8,0.8-8.8,7.2-57.8-11.9c-48.9-19.1-79.8-68.9-82.2-72.1c-2.4-3.2-19.7-25.9-19.7-49.4c0-23.5,12.4-35.1,16.8-39.8   c4.4-4.8,9.6-6,12.8-6c3.2,0,6.4,0.4,9.2,0.4c2.8,0,6.8-1.6,10.8,8c4,9.6,13.6,33.1,14.8,35.4c1.2,2.4,2,5.2,0.4,8.4   c-1.6,3.2-2.4,5.2-4.8,8c-2.4,2.8-5.1,6.2-7.2,8.4c-2.4,2.4-4.9,5-2.1,9.7c2.8,4.8,12.5,20.4,26.8,33.1   c18.4,16.3,33.9,21.3,38.7,23.7c4.8,2.4,7.6,2,10.4-1.2c2.8-3.2,12-13.9,15.2-18.7c3.2-4.8,6.4-4,10.8-2.4   c4.4,1.6,28.1,13.1,32.9,15.5c4.8,2.4,8,3.6,9.2,5.6C360,297.7,360,307.3,356,318.4z"
       id="path7"
       style="fill:#fee258;fill-opacity:1" /><path
       class="st0"
       d="M0,0v512h512V0H0z M259.6,445.7c-34.4,0-66.8-8.8-94.9-24.2L56,456l35.4-104.5   c-17.9-29.4-28.2-63.8-28.2-100.6C63.3,143.2,151.2,56,259.6,56C368.1,56,456,143.2,456,250.9C456,358.5,368.1,445.7,259.6,445.7z"
       id="path9"
       style="fill:#ffd700;fill-opacity:1" /></g></svg>